<svg width="24" height="25" viewBox="0 0 24 25" fill="none" xmlns="http://www.w3.org/2000/svg">
<path d="M15.6 8.93769H10.2C9.72264 8.93769 9.2648 9.14841 8.92723 9.52348C8.58967 9.89855 8.40002 10.4073 8.40002 10.9377C8.40002 11.4681 8.58967 11.9768 8.92723 12.3519C9.2648 12.727 9.72264 12.9377 10.2 12.9377H13.8C14.2774 12.9377 14.7353 13.1484 15.0728 13.5235C15.4104 13.8986 15.6 14.4073 15.6 14.9377C15.6 15.4681 15.4104 15.9768 15.0728 16.3519C14.7353 16.727 14.2774 16.9377 13.8 16.9377H8.40002M12 18.9377V6.9377M7.91407 21.465C10.0829 22.5775 12.5778 22.8789 14.9492 22.3147C17.3206 21.7505 19.4125 20.3579 20.848 18.3879C22.2834 16.4178 22.9681 13.9998 22.7785 11.5696C22.5889 9.13942 21.5376 6.85685 19.8139 5.13323C18.0903 3.40961 15.8077 2.35828 13.3776 2.16869C10.9474 1.9791 8.52938 2.66373 6.55931 4.09919C4.58923 5.53466 3.19664 7.62657 2.63246 9.99795C2.06829 12.3693 2.36964 14.8642 3.48222 17.0331L1.20947 23.7377L7.91407 21.465Z" stroke="white" stroke-width="2" stroke-linecap="round" stroke-linejoin="round"/>
</svg>
