<svg width="24" height="25" viewBox="0 0 24 25" fill="none" xmlns="http://www.w3.org/2000/svg">
<path d="M12 18.9375H4C3.46957 18.9375 2.96086 18.7268 2.58579 18.3517C2.21071 17.9766 2 17.4679 2 16.9375V8.9375C2 8.40707 2.21071 7.89836 2.58579 7.52329C2.96086 7.14821 3.46957 6.9375 4 6.9375H20C20.5304 6.9375 21.0391 7.14821 21.4142 7.52329C21.7893 7.89836 22 8.40707 22 8.9375V13.9375M16 19.9375L19 22.9375M19 22.9375L22 19.9375M19 22.9375V16.9375M18 12.9375H18.01M6 12.9375H6.01M14 12.9375C14 14.0421 13.1046 14.9375 12 14.9375C10.8954 14.9375 10 14.0421 10 12.9375C10 11.8329 10.8954 10.9375 12 10.9375C13.1046 10.9375 14 11.8329 14 12.9375Z" stroke="#002C50" stroke-width="2" stroke-linecap="round" stroke-linejoin="round"/>
</svg>
