<svg width="24" height="25" viewBox="0 0 24 25" fill="none" xmlns="http://www.w3.org/2000/svg">
<path d="M13.6001 2.9375V6.9375C13.6001 7.46793 13.8108 7.97664 14.1859 8.35171C14.5609 8.72679 15.0696 8.9375 15.6001 8.9375H19.6001M9.60007 9.9374H7.60007M15.6001 13.9373H7.60007M15.6001 17.9375H7.60007M14.6001 2.9375H5.6001C5.06966 2.9375 4.56096 3.14821 4.18588 3.52329C3.81081 3.89836 3.6001 4.40707 3.6001 4.9375V20.9375C3.6001 21.4679 3.81081 21.9766 4.18588 22.3517C4.56096 22.7268 5.06966 22.9375 5.6001 22.9375H17.6001C18.1305 22.9375 18.6392 22.7268 19.0143 22.3517C19.3894 21.9766 19.6001 21.4679 19.6001 20.9375V7.9375L14.6001 2.9375Z" stroke="#002C50" stroke-width="2" stroke-linecap="round" stroke-linejoin="round"/>
</svg>
