<svg width="92" height="36" viewBox="0 0 92 36" fill="none" xmlns="http://www.w3.org/2000/svg">
<path d="M92.0001 0V24.215H88.2812V0H92.0001Z" fill="black"/>
<path d="M66.5688 15.1201C66.5688 13.3126 66.9407 11.7059 67.6845 10.3144C68.4426 8.92287 69.4724 7.83262 70.7454 7.07231C72.047 6.28332 73.4916 5.896 75.0507 5.896C76.4667 5.896 77.6968 6.1829 78.7409 6.74237C79.7994 7.2875 80.6576 7.97608 81.2869 8.80811V6.19725H85.0344V24.2294H81.2869V21.5468C80.6576 22.3932 79.7994 23.1105 78.7123 23.6699C77.6253 24.2438 76.3809 24.5163 74.9935 24.5163C73.4487 24.5163 72.0327 24.129 70.7597 23.34C69.4724 22.5367 68.4569 21.4177 67.6988 19.9975C66.9264 18.5486 66.5688 16.9276 66.5688 15.1201ZM81.2726 15.1775C81.2726 13.9294 81.0151 12.8535 80.4859 11.9354C79.9853 11.0173 79.3274 10.3287 78.4978 9.84098C77.6682 9.36758 76.7814 9.12371 75.8231 9.12371C74.8647 9.12371 73.9779 9.36758 73.1483 9.84098C72.3188 10.3 71.6465 10.9886 71.1316 11.9067C70.631 12.7961 70.3878 13.872 70.3878 15.1057C70.3878 16.3394 70.631 17.444 71.1316 18.3765C71.6465 19.309 72.3331 20.0406 73.1483 20.5427C73.9922 21.0161 74.8933 21.2599 75.8231 21.2599C76.7528 21.2599 77.6682 21.0161 78.4978 20.5427C79.3274 20.0693 79.9853 19.3663 80.4859 18.4482C81.0151 17.5158 81.2726 16.4255 81.2726 15.1775Z" fill="black"/>
<path d="M51.0499 8.86546C51.6792 7.99039 52.5374 7.28747 53.6245 6.74234C54.7401 6.16852 55.9559 5.89597 57.3147 5.89597C58.9024 5.89597 60.3327 6.28329 61.62 7.0436C62.9073 7.80391 63.9085 8.89415 64.6523 10.3143C65.3961 11.7059 65.768 13.3125 65.768 15.1201C65.768 16.9276 65.3961 18.5486 64.6523 19.9975C63.9085 21.4177 62.893 22.5223 61.5914 23.34C60.3041 24.129 58.8881 24.5163 57.3147 24.5163C55.9273 24.5163 54.6829 24.2437 53.5959 23.6986C52.5231 23.1535 51.6792 22.4506 51.0499 21.6042V24.215H47.3311V0H51.0499V8.86546ZM61.9776 15.1201C61.9776 13.872 61.7201 12.8105 61.1909 11.921C60.6903 11.0029 60.018 10.3143 59.1741 9.85529C58.3446 9.3819 57.4578 9.13802 56.4994 9.13802C55.5411 9.13802 54.6686 9.3819 53.8247 9.85529C52.9951 10.3287 52.3229 11.0316 51.808 11.9497C51.3074 12.8678 51.0642 13.9437 51.0642 15.1918C51.0642 16.4398 51.3074 17.5301 51.808 18.4625C52.3229 19.3806 53.0094 20.0836 53.8247 20.557C54.6686 21.0304 55.5697 21.2742 56.4994 21.2742C57.4292 21.2742 58.3446 21.0304 59.1741 20.557C60.018 20.0549 60.6903 19.3376 61.1909 18.3908C61.7058 17.444 61.9776 16.3538 61.9776 15.1201Z" fill="black"/>
<path d="M35.9456 24.5022C34.2435 24.5022 32.7131 24.1148 31.34 23.3545C29.9669 22.5655 28.8941 21.4753 28.1074 20.0838C27.3208 18.6636 26.9346 17.0282 26.9346 15.1777C26.9346 13.3271 27.3351 11.7204 28.136 10.3002C28.937 8.88002 30.0384 7.78978 31.4258 7.02947C32.8132 6.26916 34.3723 5.88184 36.0887 5.88184C37.805 5.88184 39.3641 6.26916 40.7515 7.02947C42.1389 7.78978 43.2403 8.88002 44.0413 10.3002C44.8423 11.7204 45.2427 13.3414 45.2427 15.1777C45.2427 17.0139 44.8279 18.6349 43.9984 20.0551C43.1688 21.4753 42.0388 22.5799 40.6085 23.3545C39.2354 24.1148 37.6763 24.5022 35.9456 24.5022ZM35.9456 21.2601C36.9039 21.2601 37.7907 21.0306 38.6203 20.5715C39.4642 20.1125 40.1508 19.4239 40.68 18.5058C41.1949 17.5877 41.4667 16.4831 41.4667 15.1633C41.4667 13.8435 41.2235 12.7533 40.7229 11.8639C40.2223 10.9458 39.5644 10.2572 38.7348 9.79813C37.9052 9.33908 37.0184 9.10955 36.0601 9.10955C35.1017 9.10955 34.2149 9.33908 33.3853 9.79813C32.5844 10.2572 31.9407 10.9458 31.4544 11.8639C30.9824 12.7533 30.7392 13.8579 30.7392 15.1633C30.7392 17.0999 31.2256 18.6062 32.2125 19.6821C33.1994 20.7437 34.4581 21.2601 35.9456 21.2601Z" fill="black"/>
<path d="M24.9034 0V24.215H21.1846V0H24.9034Z" fill="black"/>
<path d="M18.3067 15.0342C18.2681 14.139 18.1623 12.1723 17.1067 10.3002C16.3057 8.88002 15.2044 7.78977 13.8169 7.02947C12.4295 6.26916 10.8705 5.88184 9.15409 5.88184C7.4377 5.88184 5.87864 6.26916 4.49122 7.02947C3.10381 7.78977 2.00246 8.88002 1.20147 10.3002C0.400491 11.7204 0 13.3414 0 15.1777C0 17.0139 0.386188 18.6636 1.17287 20.0838C1.95955 21.4753 3.03229 22.5655 4.4054 23.3545C5.77852 24.1148 7.30897 24.5022 9.01105 24.5022C10.7131 24.5022 12.3008 24.1148 13.6739 23.3545C13.9943 23.181 14.299 22.9873 14.5893 22.7807V28.034C14.6136 28.45 14.6351 29.7397 13.7655 30.9174C12.6755 32.395 10.9992 32.5973 10.5143 32.6561C8.59769 32.8885 6.20762 32.0608 5.28792 30.1342C4.89601 29.3136 4.87741 28.5203 4.91031 28.034H1.25869C1.19575 28.8703 1.21149 30.3035 1.94238 31.7696C3.48284 34.8567 7.13018 35.9957 9.81919 35.9355C12.7199 35.8709 16.0669 34.3804 17.5429 31.3908C18.1809 30.0983 18.3039 28.8589 18.3082 28.034C18.3368 27.1518 18.547 20.5787 18.3067 15.0342ZM13.7454 18.5058C13.2162 19.4239 12.5297 20.1125 11.6858 20.5715C10.8562 21.0306 9.96937 21.2601 9.01105 21.2601C7.52352 21.2601 6.26483 20.7437 5.2779 19.6821C4.29098 18.6062 3.80467 17.0999 3.80467 15.1633C3.80467 13.8579 4.04782 12.7533 4.51983 11.8639C5.00614 10.9458 5.64979 10.2572 6.45077 9.79813C7.28036 9.33908 8.16716 9.10955 9.12548 9.10955C10.0838 9.10955 10.9706 9.33908 11.8002 9.79813C12.6298 10.2572 13.2877 10.9458 13.7883 11.8639C14.289 12.7533 14.5321 13.8435 14.5321 15.1633C14.5321 16.4831 14.2604 17.5877 13.7454 18.5058Z" fill="black"/>
<path d="M79.4897 27.2612H80.1686L81.2032 29.0827H81.2457L82.2804 27.2612H82.9592L81.5223 29.6951V31.2681H80.9267V29.6951L79.4897 27.2612Z" fill="black"/>
<path d="M75.3991 31.2681H74.7588L76.1976 27.2612H76.8946L78.3334 31.2681H77.693L76.5627 27.989H76.5314L75.3991 31.2681ZM75.5065 29.699H77.5837V30.2077H75.5065V29.699Z" fill="black"/>
<path d="M70.6582 31.2681V27.2612H72.0982C72.4125 27.2612 72.6729 27.318 72.8794 27.4314C73.0859 27.5449 73.2404 27.7001 73.343 27.8971C73.4456 28.0927 73.4968 28.3132 73.4968 28.5584C73.4968 28.8049 73.4449 29.0266 73.341 29.2236C73.2384 29.4192 73.0832 29.5745 72.8755 29.6892C72.669 29.8027 72.4093 29.8595 72.0963 29.8595H71.106V29.3469H72.041C72.2396 29.3469 72.4007 29.3129 72.5243 29.2451C72.6479 29.176 72.7387 29.0821 72.7966 28.9634C72.8544 28.8447 72.8834 28.7097 72.8834 28.5584C72.8834 28.4071 72.8544 28.2727 72.7966 28.1553C72.7387 28.038 72.6473 27.946 72.5224 27.8795C72.3987 27.813 72.2357 27.7797 72.0331 27.7797H71.2678V31.2681H70.6582Z" fill="black"/>
<path d="M86.9401 28.4894L85.5337 27.2563V28.7102V28.7768L86.078 29.2641L85.5337 29.7526V29.8192V31.2731L86.9401 30.0387L87.8222 29.2641L86.9401 28.4894Z" fill="#3BC9F2"/>
<path d="M16.7928 5.07077L14.4878 5.45068L15.8863 6.60726L15.9504 6.66026L16.8521 6.52116L16.889 7.43651L16.953 7.4895L18.3515 8.64608L18.283 6.3032L18.2396 4.83351L16.7928 5.07077Z" fill="#3BC9F2"/>
<path d="M90.1405 28.4894L88.8232 27.2563V28.7102V28.7768L89.3322 29.2641L88.8232 29.7526V29.8192V31.2731L90.1405 30.0387L90.9687 29.2641L90.1405 28.4894Z" fill="#3BC9F2"/>
</svg>
