<svg width="24" height="25" viewBox="0 0 24 25" fill="none" xmlns="http://www.w3.org/2000/svg">
<path d="M2.3999 7.60407V5.47074C2.3999 4.90494 2.62466 4.36232 3.02474 3.96224C3.42482 3.56216 3.96744 3.3374 4.53324 3.3374H6.66657M17.3332 3.3374H19.4666C20.0324 3.3374 20.575 3.56216 20.9751 3.96224C21.3751 4.36232 21.5999 4.90494 21.5999 5.47074V7.60407M21.5999 18.2707V20.4041C21.5999 20.9699 21.3751 21.5125 20.9751 21.9126C20.575 22.3126 20.0324 22.5374 19.4666 22.5374H17.3332M6.66657 22.5374H4.53324C3.96744 22.5374 3.42482 22.3126 3.02474 21.9126C2.62466 21.5125 2.3999 20.9699 2.3999 20.4041V18.2707M7.73324 8.67074V17.2041M11.9999 8.67074V17.2041M16.2666 8.67074V17.2041" stroke="#002C50" stroke-width="2" stroke-linecap="round" stroke-linejoin="round"/>
</svg>
